# xmcd
#
# Track frame offsets: 
#        150
#        18322
#        31655
#        47105
#        61197
#        72195
#        88475
#        103017
#        119335
#        134080
#        145075
#        162680
#
# Disc length: 2336 seconds
#
# Revision: 2
# Processed by: cddbd v1.5.2PL0 Copyright (c) Steve Scherf et al.
# Submitted via: ExactAudioCopy v1.0b3
#
DISCID=ad091e0c
DTITLE=Martinho Da Vila - Batuqueiro
DYEAR=1986
DGENRE=Brasil-Samba
TTITLE0=Rabo De Cometa
TTITLE1=Pagode Da Saideira
TTITLE2=Cadê A Farinha?
TTITLE3=Diamante
TTITLE4=Maria Da Penha
TTITLE5=Batuca No Chão
TTITLE6=Fazendo A Cabeça
TTITLE7=Deus Da Música
TTITLE8=Felicidade, O Teu Nome... Uma Favela
TTITLE9=Água Do Rio
TTITLE10=O Preço Da Traição
TTITLE11=Bem No Coração
EXTD=
EXTT0=
EXTT1=
EXTT2=
EXTT3=
EXTT4=
EXTT5=
EXTT6=
EXTT7=
EXTT8=
EXTT9=
EXTT10=
EXTT11=
PLAYORDER=
